# vtk DataFile Version 2.0
Sample rectilinear grid
ASCII
DATASET UNSTRUCTURED_GRID
POINTS 2 double
1.5386270692425956 0.9999988308622598 1.0000004768413382 
1.4793641216676707 0.9999989239073449 1.0000004381526144 
CELLS 0 0
CELL_TYPES 0POINT_DATA 2
SCALARS R double
LOOKUP_TABLE default
0.5
0.5

VECTORS Velocity float
1.0162004136116962 -1.7577224229451794e-06 3.9300531710265695e-07
0.9596091340328856 -1.4060623483367352e-06 8.411405658409129e-07

VECTORS Omega float
-2.854402306879798e-08 1.5754226438118986e-05 1.9177784354307296e-05
2.5932485725602545e-08 1.6162521986783216e-05 1.985460271737874e-05
