# vtk DataFile Version 2.0
Sample rectilinear grid
ASCII
DATASET UNSTRUCTURED_GRID
POINTS 2 double
1.0058009180678924 0.9999999440141965 1.0000000139016665 
1.6012654951597098 0.9999987309609352 1.000000515055759 
CELLS 0 0
CELL_TYPES 0POINT_DATA 2
SCALARS R double
LOOKUP_TABLE default
0.5
0.5

VECTORS Velocity float
0.09921563952696981 -8.792173028378763e-07 2.7347000855443654e-07
1.0721358273102652 -1.5341717693464234e-06 8.279172168762237e-07

VECTORS Omega float
-8.40227672639063e-07 4.601752370889349e-06 5.951148895868286e-06
-4.5155554455466385e-08 1.602718916064248e-05 1.8464727110215643e-05
