# vtk DataFile Version 2.0
Sample rectilinear grid
ASCII
DATASET UNSTRUCTURED_GRID
POINTS 2 double
1.3709942486687425 0.9999991050469472 1.0000003644619482 
1.3220156473120903 0.9999991896776623 1.0000003300791027 
CELLS 0 0
CELL_TYPES 0POINT_DATA 2
SCALARS R double
LOOKUP_TABLE default
0.5
0.5

VECTORS Velocity float
0.8453475208340052 -1.5640930176341e-06 3.5042777033676824e-07
0.7876257581349424 -1.1881571859712513e-06 5.899727373676906e-07

VECTORS Omega float
8.157686508113882e-08 1.589568594447735e-05 2.0910966568432553e-05
1.651239944843506e-07 1.5704034014751154e-05 2.134596256009472e-05
