# vtk DataFile Version 2.0
Sample rectilinear grid
ASCII
DATASET UNSTRUCTURED_GRID
POINTS 2 double
1.1294055844182014 0.9999995623030388 1.000000164756596 
1.101417057520698 0.9999996219631014 1.000000139057958 
CELLS 0 0
CELL_TYPES 0POINT_DATA 2
SCALARS R double
LOOKUP_TABLE default
0.5
0.5

VECTORS Velocity float
0.49582169043502405 -1.3426460896938372e-06 3.873439752120865e-07
0.4373689100758765 -1.0419063992349775e-06 6.026350323853185e-07

VECTORS Omega float
-2.5468771870554736e-07 1.4096734121095931e-05 1.9216349412789755e-05
-6.787357411388986e-08 1.3144055634361643e-05 1.740885751333028e-05
