# vtk DataFile Version 2.0
Sample rectilinear grid
ASCII
DATASET UNSTRUCTURED_GRID
POINTS 2 double
1.3220156473120903 0.9999991896776623 1.0000003300791027 
1.2765073474939073 0.9999992694006795 1.0000002951181228 
CELLS 0 0
CELL_TYPES 0POINT_DATA 2
SCALARS R double
LOOKUP_TABLE default
0.5
0.5

VECTORS Velocity float
0.7876257581349424 -1.1881571859712513e-06 5.899727373676906e-07
0.7296076361873525 -1.0398463692020525e-06 7.362463203987626e-07

VECTORS Omega float
1.651239944843506e-07 1.5704034014751154e-05 2.134596256009472e-05
1.2066766416355894e-07 1.551628828882663e-05 2.1072127222255413e-05
