# vtk DataFile Version 2.0
Sample rectilinear grid
ASCII
DATASET UNSTRUCTURED_GRID
POINTS 2 double
1.0383459854005694 0.9999998023287738 1.0000000696741513 
1.0241831001405906 0.9999998389534229 1.0000000541790728 
CELLS 0 0
CELL_TYPES 0POINT_DATA 2
SCALARS R double
LOOKUP_TABLE default
0.5
0.5

VECTORS Velocity float
0.264339689936461 -7.545507394717205e-07 7.477251469914201e-08
0.20803039367128134 -6.313006600700985e-07 4.7263093926291377e-07

VECTORS Omega float
-7.661944226429995e-08 8.869646841290082e-06 1.4568722934442622e-05
-1.1803591505931315e-07 7.299629509650296e-06 1.0883986130948583e-05
