# vtk DataFile Version 2.0
Sample rectilinear grid
ASCII
DATASET UNSTRUCTURED_GRID
POINTS 2 double
1.0241831001405906 0.9999998389534229 1.0000000541790728 
1.013351065428343 0.9999998876198366 1.0000000316280604 
CELLS 0 0
CELL_TYPES 0POINT_DATA 2
SCALARS R double
LOOKUP_TABLE default
0.5
0.5

VECTORS Velocity float
0.20803039367128134 -6.313006600700985e-07 4.7263093926291377e-07
0.1528109330244068 -9.047842425697641e-07 2.8168185069047326e-07

VECTORS Omega float
-1.1803591505931315e-07 7.299629509650296e-06 1.0883986130948583e-05
-4.871389033888558e-07 6.8676691616214365e-06 7.503638429284638e-06
