# vtk DataFile Version 2.0
Sample rectilinear grid
ASCII
DATASET UNSTRUCTURED_GRID
POINTS 2 double
1.4793641216676707 0.9999989239073449 1.0000004381526144 
1.4235035382504795 0.9999990149723978 1.0000003988200419 
CELLS 0 0
CELL_TYPES 0POINT_DATA 2
SCALARS R double
LOOKUP_TABLE default
0.5
0.5

VECTORS Velocity float
0.9596091340328856 -1.4060623483367352e-06 8.411405658409129e-07
0.9027516451300448 -1.7519733706553846e-06 5.831140265911191e-07

VECTORS Omega float
2.5932485725602545e-08 1.6162521986783216e-05 1.985460271737874e-05
-1.5785929131078503e-07 1.6941765605160753e-05 2.002813132180875e-05
