# vtk DataFile Version 2.0
Sample rectilinear grid
ASCII
DATASET UNSTRUCTURED_GRID
POINTS 2 double
1.2765073474939073 0.9999992694006795 1.0000002951181228 
1.2344859127339267 0.9999993469318462 1.0000002616960266 
CELLS 0 0
CELL_TYPES 0POINT_DATA 2
SCALARS R double
LOOKUP_TABLE default
0.5
0.5

VECTORS Velocity float
0.7296076361873525 -1.0398463692020525e-06 7.362463203987626e-07
0.6713591981659963 -9.948091477546198e-07 7.280547971192835e-07

VECTORS Omega float
1.2066766416355894e-07 1.551628828882663e-05 2.1072127222255413e-05
1.1348817110478706e-07 1.517527428389464e-05 2.0917675114329725e-05
