# vtk DataFile Version 2.0
Sample rectilinear grid
ASCII
DATASET UNSTRUCTURED_GRID
POINTS 2 double
1.101417057520698 0.9999996219631014 1.000000139057958 
1.0769256611478957 0.9999996894117233 1.0000001168611614 
CELLS 0 0
CELL_TYPES 0POINT_DATA 2
SCALARS R double
LOOKUP_TABLE default
0.5
0.5

VECTORS Velocity float
0.4373689100758765 -1.0419063992349775e-06 6.026350323853185e-07
0.3792338991737801 -9.290888172342381e-07 1.8795549864850078e-07

VECTORS Omega float
-6.787357411388986e-08 1.3144055634361643e-05 1.740885751333028e-05
5.590779296897603e-08 1.1503652498619316e-05 1.8065162284931174e-05
