# vtk DataFile Version 2.0
Sample rectilinear grid
ASCII
DATASET UNSTRUCTURED_GRID
POINTS 2 double
1.0559126899402618 0.9999997397876217 1.0000000883659657 
1.0383459854005694 0.9999998023287738 1.0000000696741513 
CELLS 0 0
CELL_TYPES 0POINT_DATA 2
SCALARS R double
LOOKUP_TABLE default
0.5
0.5

VECTORS Velocity float
0.3214643733030776 -1.0275970049610034e-06 4.639585949958171e-07
0.264339689936461 -7.545507394717205e-07 7.477251469914201e-08

VECTORS Omega float
-3.1173947539820566e-07 1.135059891495297e-05 1.4350580880038047e-05
-7.661944226429995e-08 8.869646841290082e-06 1.4568722934442622e-05
