# vtk DataFile Version 2.0
Sample rectilinear grid
ASCII
DATASET UNSTRUCTURED_GRID
POINTS 2 double
1.013351065428343 0.9999998876198366 1.0000000316280604 
1.6672499716710893 0.9999986304112819 1.0000005548412434 
CELLS 0 0
CELL_TYPES 0POINT_DATA 2
SCALARS R double
LOOKUP_TABLE default
0.5
0.5

VECTORS Velocity float
0.1528109330244068 -9.047842425697641e-07 2.8168185069047326e-07
1.12778026487956 -1.87840881636695e-06 4.3640585547954143e-07

VECTORS Omega float
-4.871389033888558e-07 6.8676691616214365e-06 7.503638429284638e-06
-2.122273140994532e-07 1.5541185402385633e-05 1.7403203727464656e-05
