# vtk DataFile Version 2.0
Sample rectilinear grid
ASCII
DATASET UNSTRUCTURED_GRID
POINTS 2 double
1.4235035382504795 0.9999990149723978 1.0000003988200419 
1.3709942486687425 0.9999991050469472 1.0000003644619482 
CELLS 0 0
CELL_TYPES 0POINT_DATA 2
SCALARS R double
LOOKUP_TABLE default
0.5
0.5

VECTORS Velocity float
0.9027516451300448 -1.7519733706553846e-06 5.831140265911191e-07
0.8453475208340052 -1.5640930176341e-06 3.5042777033676824e-07

VECTORS Omega float
-1.5785929131078503e-07 1.6941765605160753e-05 2.002813132180875e-05
8.157686508113882e-08 1.589568594447735e-05 2.0910966568432553e-05
