# vtk DataFile Version 2.0
Sample rectilinear grid
ASCII
DATASET UNSTRUCTURED_GRID
POINTS 2 double
1.6012654951597098 0.9999987309609352 1.000000515055759 
1.5386270692425956 0.9999988308622598 1.0000004768413382 
CELLS 0 0
CELL_TYPES 0POINT_DATA 2
SCALARS R double
LOOKUP_TABLE default
0.5
0.5

VECTORS Velocity float
1.0721358273102652 -1.5341717693464234e-06 8.279172168762237e-07
1.0162004136116962 -1.7577224229451794e-06 3.9300531710265695e-07

VECTORS Omega float
-4.5155554455466385e-08 1.602718916064248e-05 1.8464727110215643e-05
-2.854402306879798e-08 1.5754226438118986e-05 1.9177784354307296e-05
