# vtk DataFile Version 2.0
Sample rectilinear grid
ASCII
DATASET UNSTRUCTURED_GRID
POINTS 2 double
1.1609511327221378 0.9999994952468798 1.0000001985025588 
1.0014053735183825 0.9999999853758723 1.0000000023600513 
CELLS 0 0
CELL_TYPES 0POINT_DATA 2
SCALARS R double
LOOKUP_TABLE default
0.5
0.5

VECTORS Velocity float
0.5544390443132676 -1.1930524968912058e-06 2.657563976276954e-07
0.04776784143486294 -4.6857221883078947e-07 1.0796983252223306e-07

VECTORS Omega float
1.194562811857759e-07 1.4145483926524168e-05 2.0775439749254826e-05
-5.380871166274487e-07 1.896738274001384e-06 3.4636020036916803e-06
