# vtk DataFile Version 2.0
Sample rectilinear grid
ASCII
DATASET UNSTRUCTURED_GRID
POINTS 2 double
1.2344859127339267 0.9999993469318462 1.0000002616960266 
1.1959642901288108 0.9999994227410497 1.0000002302789917 
CELLS 0 0
CELL_TYPES 0POINT_DATA 2
SCALARS R double
LOOKUP_TABLE default
0.5
0.5

VECTORS Velocity float
0.6713591981659963 -9.948091477546198e-07 7.280547971192835e-07
0.6129463978204469 -9.471773667035962e-07 5.710513692431376e-07

VECTORS Omega float
1.1348817110478706e-07 1.517527428389464e-05 2.0917675114329725e-05
1.3794880232320637e-07 1.461972755405976e-05 2.0946095715790575e-05
