# vtk DataFile Version 2.0
Sample rectilinear grid
ASCII
DATASET UNSTRUCTURED_GRID
POINTS 2 double
1.0769256611478957 0.9999996894117233 1.0000001168611614 
1.0559126899402618 0.9999997397876217 1.0000000883659657 
CELLS 0 0
CELL_TYPES 0POINT_DATA 2
SCALARS R double
LOOKUP_TABLE default
0.5
0.5

VECTORS Velocity float
0.3792338991737801 -9.290888172342381e-07 1.8795549864850078e-07
0.3214643733030776 -1.0275970049610034e-06 4.639585949958171e-07

VECTORS Omega float
5.590779296897603e-08 1.1503652498619316e-05 1.8065162284931174e-05
-3.1173947539820566e-07 1.135059891495297e-05 1.4350580880038047e-05
