# vtk DataFile Version 2.0
Sample rectilinear grid
ASCII
DATASET UNSTRUCTURED_GRID
POINTS 2 double
1.6672499716710893 0.9999986304112819 1.0000005548412434 
1.0058009180678924 0.9999999440141965 1.0000000139016665 
CELLS 0 0
CELL_TYPES 0POINT_DATA 2
SCALARS R double
LOOKUP_TABLE default
0.5
0.5

VECTORS Velocity float
1.12778026487956 -1.87840881636695e-06 4.3640585547954143e-07
0.09921563952696981 -8.792173028378763e-07 2.7347000855443654e-07

VECTORS Omega float
-2.122273140994532e-07 1.5541185402385633e-05 1.7403203727464656e-05
-8.40227672639063e-07 4.601752370889349e-06 5.951148895868286e-06
