# vtk DataFile Version 2.0
Sample rectilinear grid
ASCII
DATASET UNSTRUCTURED_GRID
POINTS 2 double
1.1959642901288108 0.9999994227410497 1.0000002302789917 
1.1609511327221378 0.9999994952468798 1.0000001985025588 
CELLS 0 0
CELL_TYPES 0POINT_DATA 2
SCALARS R double
LOOKUP_TABLE default
0.5
0.5

VECTORS Velocity float
0.6129463978204469 -9.471773667035962e-07 5.710513692431376e-07
0.5544390443132676 -1.1930524968912058e-06 2.657563976276954e-07

VECTORS Omega float
1.3794880232320637e-07 1.461972755405976e-05 2.0946095715790575e-05
1.194562811857759e-07 1.4145483926524168e-05 2.0775439749254826e-05
